<svg width="204" height="204" viewBox="0 0 204 204" fill="none" xmlns="http://www.w3.org/2000/svg">
<circle cx="101.879" cy="101.879" r="101.879" fill="#0BCBFF"/>
<path d="M85.6759 142.503C83.5146 142.506 81.4009 141.868 79.6022 140.67C77.8036 139.472 76.4008 137.766 75.5715 135.771C74.7422 133.775 74.5235 131.578 74.9432 129.457C75.3629 127.337 76.402 125.389 77.9292 123.86C79.4564 122.33 81.4029 121.288 83.5225 120.865C85.642 120.443 87.8394 120.658 89.8365 121.484C91.8337 122.311 93.5408 123.711 94.7419 125.508C95.943 127.305 96.5841 129.417 96.5841 131.579C96.5798 134.472 95.4297 137.246 93.3854 139.293C91.3411 141.34 88.5691 142.495 85.6759 142.503Z" fill="#0A3B87"/>
<path d="M134.682 142.503C132.518 142.516 130.4 141.886 128.595 140.694C126.79 139.501 125.379 137.8 124.543 135.805C123.706 133.81 123.48 131.611 123.894 129.488C124.309 127.364 125.344 125.412 126.869 123.877C128.394 122.343 130.341 121.296 132.461 120.869C134.582 120.442 136.782 120.655 138.782 121.48C140.782 122.305 142.492 123.705 143.695 125.503C144.899 127.301 145.541 129.415 145.541 131.579C145.537 134.464 144.394 137.23 142.36 139.276C140.326 141.322 137.566 142.482 134.682 142.503Z" fill="#0A3B87"/>
<path d="M134.682 133.267H88.1108C87.4623 133.267 86.8231 133.114 86.2449 132.82C85.6667 132.527 85.1659 132.101 84.7832 131.577C84.4005 131.054 84.1466 130.447 84.0423 129.807C83.9379 129.167 83.986 128.512 84.1825 127.894L90.4483 112.522C90.5262 112.313 90.6462 112.123 90.8007 111.963C90.9553 111.803 91.1411 111.677 91.3465 111.591C91.552 111.506 91.7729 111.464 91.9953 111.468C92.2177 111.471 92.4371 111.521 92.6396 111.613C92.8523 111.686 93.0475 111.802 93.2128 111.955C93.3781 112.107 93.51 112.292 93.6 112.498C93.69 112.704 93.7363 112.927 93.7358 113.151C93.7354 113.376 93.6882 113.599 93.5973 113.804L87.3803 129.046C87.3606 129.242 87.4125 129.438 87.5264 129.598C87.5978 129.695 87.6908 129.773 87.798 129.826C87.9052 129.88 88.0234 129.907 88.1432 129.907H134.682C135.127 129.907 135.555 130.084 135.87 130.399C136.185 130.714 136.362 131.141 136.362 131.587C136.362 132.032 136.185 132.46 135.87 132.775C135.555 133.09 135.127 133.267 134.682 133.267Z" fill="#0A3B87"/>
<path d="M149.047 72.0706C148.666 71.5702 148.175 71.1638 147.612 70.8825C147.05 70.6011 146.43 70.4523 145.801 70.4473H75.5793L72.3328 62.8992C72.208 62.595 71.9937 62.3359 71.7183 62.1562C71.4429 61.9765 71.1195 61.8847 70.7908 61.8928H55.1589C54.9383 61.8928 54.7198 61.9363 54.516 62.0207C54.3122 62.1052 54.1269 62.2289 53.9709 62.3849C53.8149 62.5409 53.6912 62.7261 53.6067 62.93C53.5223 63.1338 53.4789 63.3523 53.4789 63.5729C53.4789 63.7935 53.5223 64.012 53.6067 64.2158C53.6912 64.4197 53.8149 64.6049 53.9709 64.7609C54.1269 64.9169 54.3122 65.0406 54.516 65.1251C54.7198 65.2095 54.9383 65.253 55.1589 65.253H69.6383L90.221 112.327C90.5343 113.066 91.0589 113.696 91.7289 114.138C92.3988 114.579 93.1844 114.814 93.9869 114.811H134.292C135.168 114.813 136.021 114.535 136.728 114.019C137.434 113.502 137.957 112.773 138.22 111.937L149.583 75.7066C149.781 75.1004 149.836 74.4565 149.743 73.8256C149.65 73.1947 149.412 72.5939 149.047 72.0706ZM130.932 105.104H96.438C95.9925 105.104 95.5651 104.927 95.2501 104.612C94.935 104.296 94.758 103.869 94.758 103.424C94.758 102.978 94.935 102.551 95.2501 102.236C95.5651 101.92 95.9925 101.743 96.438 101.743H130.932C131.378 101.743 131.805 101.92 132.12 102.236C132.435 102.551 132.612 102.978 132.612 103.424C132.612 103.869 132.435 104.296 132.12 104.612C131.805 104.927 131.378 105.104 130.932 105.104ZM133.87 94.4714H93.5974C93.3767 94.4714 93.1583 94.4279 92.9544 94.3435C92.7506 94.259 92.5654 94.1353 92.4094 93.9793C92.2534 93.8233 92.1296 93.6381 92.0452 93.4342C91.9607 93.2304 91.9173 93.0119 91.9173 92.7913C91.9173 92.5707 91.9607 92.3522 92.0452 92.1484C92.1296 91.9445 92.2534 91.7593 92.4094 91.6033C92.5654 91.4473 92.7506 91.3236 92.9544 91.2391C93.1583 91.1547 93.3767 91.1112 93.5974 91.1112H133.805C134.251 91.1112 134.678 91.2882 134.993 91.6033C135.308 91.9184 135.485 92.3457 135.485 92.7913C135.485 93.2369 135.308 93.6642 134.993 93.9793C134.678 94.2943 134.251 94.4714 133.805 94.4714H133.87ZM136.272 83.8553H91.0976C90.6498 83.8553 90.2204 83.6775 89.9038 83.3609C89.5872 83.0443 89.4094 82.6149 89.4094 82.1672C89.4094 81.7194 89.5872 81.29 89.9038 80.9734C90.2204 80.6568 90.6498 80.479 91.0976 80.479H136.208C136.655 80.479 137.085 80.6568 137.401 80.9734C137.718 81.29 137.896 81.7194 137.896 82.1672C137.896 82.6149 137.718 83.0443 137.401 83.3609C137.085 83.6775 136.655 83.8553 136.208 83.8553H136.272Z" fill="#0A3B87"/>
<path d="M58.3242 63.6622C58.3242 64.1887 58.1681 64.7034 57.8756 65.1412C57.5831 65.5789 57.1673 65.9202 56.6809 66.1217C56.1944 66.3231 55.6592 66.3759 55.1428 66.2731C54.6264 66.1704 54.152 65.9169 53.7797 65.5446C53.4074 65.1723 53.1539 64.6979 53.0512 64.1815C52.9484 63.6651 53.0012 63.1299 53.2026 62.6434C53.4041 62.157 53.7453 61.7412 54.1831 61.4487C54.6209 61.1562 55.1356 61.0001 55.6621 61.0001C56.0123 60.9979 56.3595 61.0653 56.6834 61.1983C57.0074 61.3313 57.3017 61.5273 57.5493 61.775C57.797 62.0226 57.993 62.3169 58.126 62.6409C58.259 62.9648 58.3264 63.312 58.3242 63.6622Z" fill="white"/>
</svg>
