<svg width="204" height="204" viewBox="0 0 204 204" fill="none" xmlns="http://www.w3.org/2000/svg">
<circle cx="101.879" cy="101.879" r="101.879" fill="#0BCBFF"/>
<path d="M49.3813 82.7916C49.1443 83.0401 49.008 83.3736 49.0003 83.7235C48.9927 84.0733 49.1144 84.4129 49.3403 84.6723L61.619 98.7804C61.7393 98.918 61.8852 99.0289 62.0479 99.1061C62.2106 99.1834 62.3868 99.2255 62.5656 99.2299H62.5929C62.9434 99.2291 63.2794 99.085 63.5286 98.8287C70.4644 91.5315 79.1571 86.3049 88.6988 83.695C97.9406 81.1525 107.658 81.1421 116.905 83.6648C126.152 86.1875 134.613 91.1573 141.464 98.0904C141.711 98.3414 142.043 98.4811 142.388 98.4792C142.734 98.4773 143.064 98.3341 143.308 98.0804L155.59 85.3068C155.712 85.1787 155.809 85.0268 155.875 84.8597C155.941 84.6926 155.974 84.5136 155.973 84.3331C155.972 84.1525 155.937 83.9739 155.87 83.8075C155.802 83.6412 155.704 83.4903 155.58 83.3635C141.395 68.9396 122.674 61 102.861 61C81.8166 61 62.8228 68.739 49.3813 82.7916Z" fill="white"/>
<path d="M102.53 90.2831C99.1811 90.2981 95.847 90.7459 92.6043 91.6161C84.3556 93.7898 76.3736 98.5727 69.7719 105.475C69.5303 105.73 69.3939 106.073 69.3919 106.43C69.3898 106.788 69.5223 107.132 69.761 107.39L80.1272 118.486C80.2488 118.616 80.394 118.72 80.5544 118.791C80.7148 118.863 80.8871 118.9 81.0615 118.902C81.4125 118.891 81.7475 118.747 82.0041 118.498C87.9833 112.23 93.4948 108.346 102.47 108.346C111.108 108.346 117.002 112.511 123.198 118.772C123.446 119.018 123.774 119.156 124.116 119.158H124.163C124.34 119.152 124.514 119.11 124.675 119.032C124.835 118.954 124.979 118.843 125.097 118.706L135.247 106.878C135.473 106.616 135.592 106.273 135.581 105.922C135.569 105.57 135.428 105.237 135.186 104.992C128.717 98.4077 120.632 93.7372 112.381 91.6019C109.161 90.7473 105.853 90.3045 102.53 90.2831Z" fill="white"/>
<path d="M89.9203 128.884C89.9206 131.469 90.6578 133.995 92.0388 136.144C93.4197 138.293 95.3823 139.968 97.6785 140.957C99.9746 141.946 102.501 142.204 104.939 141.7C107.376 141.195 109.615 139.951 111.372 138.123C113.129 136.295 114.326 133.967 114.811 131.432C115.296 128.897 115.047 126.269 114.096 123.882C113.144 121.494 111.534 119.453 109.467 118.017C107.401 116.581 104.972 115.815 102.486 115.815C99.1549 115.82 95.9614 117.199 93.6059 119.649C91.2504 122.099 89.9251 125.42 89.9203 128.884ZM109.424 128.884C109.424 130.311 109.017 131.706 108.255 132.893C107.492 134.079 106.408 135.004 105.14 135.55C103.873 136.095 102.478 136.238 101.132 135.96C99.7861 135.681 98.5499 134.994 97.5797 133.985C96.6095 132.975 95.9489 131.69 95.6813 130.29C95.4137 128.89 95.5512 127.44 96.0763 126.121C96.6015 124.803 97.4908 123.676 98.6318 122.883C99.7727 122.091 101.114 121.667 102.486 121.667C104.326 121.669 106.09 122.43 107.391 123.783C108.692 125.136 109.423 126.971 109.424 128.884Z" fill="white"/>
<path d="M95.5481 128.884C95.5483 130.311 95.9555 131.706 96.718 132.893C97.4806 134.079 98.5643 135.004 99.8321 135.55C101.1 136.095 102.495 136.238 103.841 135.96C105.186 135.681 106.423 134.994 107.393 133.985C108.363 132.975 109.024 131.69 109.291 130.29C109.559 128.89 109.421 127.44 108.896 126.121C108.371 124.803 107.482 123.676 106.341 122.883C105.2 122.091 103.858 121.667 102.486 121.667C100.647 121.67 98.8832 122.431 97.5825 123.784C96.2819 125.137 95.5502 126.971 95.5481 128.884Z" fill="#AAD4C8"/>
<path d="M49.7173 84.3439L49.7175 84.3441L61.9954 98.4513C61.9955 98.4514 61.9955 98.4514 61.9955 98.4514C62.0715 98.5383 62.1625 98.607 62.2624 98.6545C62.3607 98.7011 62.466 98.7266 62.5725 98.7299L62.5917 98.7299L62.5929 98.7299M49.7173 84.3439L88.6988 83.695C79.1571 86.3049 70.4644 91.5315 63.5286 98.8287C63.2794 99.085 62.9434 99.2291 62.5929 99.2299V98.7299M49.7173 84.3439C49.5747 84.1802 49.4952 83.9622 49.5002 83.7344C49.5052 83.5066 49.5941 83.293 49.7431 83.1367C63.0819 69.1917 81.9409 61.5 102.861 61.5C122.537 61.5 141.129 69.3832 155.223 83.7133C155.3 83.7928 155.363 83.8885 155.406 83.9953C155.45 84.1025 155.473 84.2181 155.473 84.3355C155.474 84.4529 155.452 84.5689 155.41 84.6765C155.367 84.7839 155.306 84.8802 155.229 84.9606C155.229 84.9609 155.229 84.9611 155.228 84.9614L142.948 97.7336L49.7173 84.3439ZM62.5929 98.7299C62.8045 98.7291 63.0114 98.6424 63.1684 98.482C70.1655 91.121 78.9366 85.8468 88.5669 83.2127M62.5929 98.7299L88.5669 83.2127M88.5669 83.2127C97.8949 80.6466 107.703 80.6362 117.036 83.1824C126.37 85.7287 134.908 90.7444 141.82 97.7389L141.821 97.7398C141.975 97.8967 142.178 97.9803 142.386 97.9792C142.593 97.9781 142.795 97.8924 142.948 97.7339L88.5669 83.2127ZM108.814 130.119C108.887 129.714 108.924 129.301 108.924 128.885L108.814 130.119ZM108.814 130.119C108.81 130.145 108.805 130.171 108.8 130.196C108.635 131.06 108.308 131.885 107.834 132.622C107.612 132.967 107.361 133.289 107.085 133.582C107.068 133.601 107.05 133.62 107.032 133.638C106.436 134.258 105.727 134.753 104.943 135.09C104.576 135.248 104.198 135.37 103.813 135.454C103.788 135.46 103.764 135.465 103.739 135.47C102.916 135.64 102.064 135.642 101.233 135.47C100.844 135.389 100.465 135.272 100.099 135.12C100.076 135.11 100.053 135.1 100.03 135.09C100.03 135.09 100.03 135.09 100.03 135.09C99.2531 134.756 98.5421 134.264 97.9402 133.638C97.6584 133.345 97.4044 133.026 97.1809 132.687C97.1667 132.666 97.1526 132.644 97.1386 132.622C96.6693 131.892 96.3391 131.068 96.1724 130.196C96.0943 129.788 96.0532 129.375 96.0485 128.963M108.814 130.119L96.0485 128.963M96.0485 128.963C96.0482 128.937 96.0481 128.911 96.0481 128.885C96.0501 127.098 96.7337 125.389 97.943 124.131C99.1516 122.874 100.786 122.17 102.486 122.167C104.187 122.169 105.822 122.873 107.03 124.13C108.24 125.388 108.923 127.098 108.924 128.885L96.0485 128.963ZM92.7317 92.0996L92.7338 92.099C95.9343 91.2401 99.2247 90.7981 102.53 90.7831C105.809 90.8044 109.074 91.2416 112.252 92.0851L112.255 92.0859C120.415 94.1976 128.421 98.8201 134.829 105.342L134.83 105.343C134.981 105.497 135.073 105.71 135.081 105.938C135.088 106.167 135.01 106.386 134.868 106.552L134.868 106.552L124.718 118.38C124.644 118.466 124.555 118.534 124.457 118.582C124.361 118.628 124.258 118.654 124.154 118.658H124.117C123.91 118.657 123.708 118.573 123.552 118.419C117.323 112.125 111.308 107.846 102.47 107.846C93.303 107.846 87.6702 111.835 81.6496 118.145C81.484 118.303 81.2734 118.392 81.0559 118.402C80.9538 118.399 80.8526 118.377 80.7575 118.335C80.6593 118.291 80.5691 118.227 80.4926 118.145C80.4926 118.145 80.4925 118.145 80.4925 118.145L70.1277 107.05C70.1275 107.05 70.1273 107.05 70.1271 107.049C69.9769 106.887 69.8905 106.666 69.8919 106.433C69.8932 106.2 69.9821 105.981 70.1339 105.82C76.6773 98.9788 84.5799 94.2478 92.7317 92.0996ZM92.4594 135.874C91.131 133.807 90.4207 131.375 90.4203 128.885C90.4249 125.547 91.7022 122.35 93.9664 119.995C96.2299 117.641 99.2945 116.32 102.487 116.315C104.869 116.315 107.199 117.049 109.182 118.428C111.166 119.806 112.715 121.768 113.631 124.067C114.547 126.366 114.787 128.896 114.32 131.338C113.853 133.78 112.701 136.02 111.012 137.776C109.323 139.533 107.174 140.727 104.837 141.21C102.501 141.694 100.079 141.446 97.8762 140.497C95.6736 139.549 93.7877 137.941 92.4594 135.874ZM109.924 128.884C109.925 127.878 109.735 126.876 109.361 125.936C108.8 124.529 107.849 123.323 106.626 122.473C105.403 121.623 103.962 121.168 102.487 121.167C102.487 121.167 102.486 121.167 102.486 121.167C102.486 121.167 102.486 121.167 102.486 121.167C101.01 121.168 99.5698 121.623 98.3464 122.473C97.1231 123.323 96.1725 124.529 95.6118 125.936C95.2376 126.876 95.0479 127.878 95.0481 128.884L109.924 128.884Z" stroke="#0A3B87"/>
</svg>
