<svg width="16" height="16" viewBox="0 0 16 16" fill="none" xmlns="http://www.w3.org/2000/svg">
<path d="M11.9025 4.36387H11.9095M4.55249 1.21387H11.5525C13.4855 1.21387 15.0525 2.78087 15.0525 4.71387V11.7139C15.0525 13.6469 13.4855 15.2139 11.5525 15.2139H4.55249C2.61949 15.2139 1.05249 13.6469 1.05249 11.7139V4.71387C1.05249 2.78087 2.61949 1.21387 4.55249 1.21387ZM10.8525 7.77287C10.9389 8.35544 10.8394 8.95042 10.5681 9.47318C10.2969 9.99594 9.86769 10.4199 9.34163 10.6846C8.81556 10.9494 8.2194 11.0416 7.63794 10.948C7.05648 10.8545 6.51932 10.5799 6.10288 10.1635C5.68643 9.74703 5.4119 9.20988 5.31834 8.62842C5.22477 8.04695 5.31694 7.45079 5.58172 6.92473C5.8465 6.39866 6.27042 5.96949 6.79318 5.69824C7.31594 5.42699 7.91092 5.32748 8.49349 5.41387C9.08774 5.50199 9.63789 5.77889 10.0627 6.20368C10.4875 6.62847 10.7644 7.17862 10.8525 7.77287Z" stroke="white" stroke-linecap="round" stroke-linejoin="round"/>
</svg>
