<svg width="17" height="16" viewBox="0 0 17 16" fill="none" xmlns="http://www.w3.org/2000/svg">
<path d="M11.5525 5.58887C12.746 5.58887 13.8906 6.06297 14.7345 6.90689C15.5784 7.7508 16.0525 8.89539 16.0525 10.0889V15.3389H13.0525V10.0889C13.0525 9.69104 12.8945 9.30951 12.6132 9.02821C12.3318 8.7469 11.9503 8.58887 11.5525 8.58887C11.1547 8.58887 10.7731 8.7469 10.4918 9.02821C10.2105 9.30951 10.0525 9.69104 10.0525 10.0889V15.3389H7.05249V10.0889C7.05249 8.89539 7.5266 7.7508 8.37051 6.90689C9.21442 6.06297 10.359 5.58887 11.5525 5.58887Z" stroke="white" stroke-linecap="round" stroke-linejoin="round"/>
<path d="M4.05249 6.33887H1.05249V15.3389H4.05249V6.33887Z" stroke="white" stroke-linecap="round" stroke-linejoin="round"/>
<path d="M2.55249 4.08887C3.38092 4.08887 4.05249 3.41729 4.05249 2.58887C4.05249 1.76044 3.38092 1.08887 2.55249 1.08887C1.72406 1.08887 1.05249 1.76044 1.05249 2.58887C1.05249 3.41729 1.72406 4.08887 2.55249 4.08887Z" stroke="white" stroke-linecap="round" stroke-linejoin="round"/>
</svg>
