<svg width="204" height="204" viewBox="0 0 204 204" fill="none" xmlns="http://www.w3.org/2000/svg">
<circle cx="101.879" cy="101.879" r="101.879" fill="#0BCBFF"/>
<path d="M71.6771 57.2003L142.503 53.1532V153.978L71.6771 156.875V57.2003Z" fill="white"/>
<path d="M71.6771 57.2003V156.875C71.6798 157.893 72.0838 158.868 72.8005 159.587C73.5172 160.306 74.4881 160.71 75.5004 160.71H134.626C135.128 160.711 135.625 160.613 136.088 160.421C136.552 160.229 136.974 159.947 137.329 159.59C137.684 159.234 137.966 158.811 138.158 158.345C138.35 157.879 138.449 157.379 138.449 156.875V60.9951C138.439 59.9832 138.031 59.0166 137.315 58.3057C136.599 57.5949 135.632 57.1976 134.626 57.2003H71.6771Z" fill="#0A3B87"/>
<path d="M127.491 79.0609H85.9668V102.082H127.491V79.0609Z" fill="#F28629"/>
<path d="M126.809 134.106H85.8865C85.6843 134.106 85.4903 134.025 85.3472 133.881C85.2042 133.737 85.1239 133.542 85.1239 133.339C85.1239 133.136 85.2042 132.94 85.3472 132.797C85.4903 132.653 85.6843 132.572 85.8865 132.572H126.809C127.011 132.572 127.205 132.653 127.348 132.797C127.491 132.94 127.571 133.136 127.571 133.339C127.571 133.542 127.491 133.737 127.348 133.881C127.205 134.025 127.011 134.106 126.809 134.106Z" fill="#F28629"/>
<path d="M126.809 139.102H85.8865C85.698 139.08 85.5241 138.989 85.3978 138.847C85.2715 138.705 85.2017 138.521 85.2017 138.33C85.2017 138.139 85.2715 137.955 85.3978 137.812C85.5241 137.67 85.698 137.579 85.8865 137.558H126.809C126.997 137.579 127.171 137.67 127.298 137.812C127.424 137.955 127.494 138.139 127.494 138.33C127.494 138.521 127.424 138.705 127.298 138.847C127.171 138.989 126.997 139.08 126.809 139.102Z" fill="#F28629"/>
<path d="M126.809 144.098H85.8865C85.698 144.076 85.5241 143.985 85.3978 143.843C85.2715 143.701 85.2017 143.516 85.2017 143.326C85.2017 143.135 85.2715 142.951 85.3978 142.808C85.5241 142.666 85.698 142.575 85.8865 142.553H126.809C126.997 142.575 127.171 142.666 127.298 142.808C127.424 142.951 127.494 143.135 127.494 143.326C127.494 143.516 127.424 143.701 127.298 143.843C127.171 143.985 126.997 144.076 126.809 144.098Z" fill="#F28629"/>
<path d="M112.89 46.1186C111.475 46.7266 110.334 47.8415 109.689 49.2473C109.059 47.8454 107.932 46.7299 106.528 46.1186C107.949 45.527 109.091 44.4112 109.719 43C110.348 44.404 111.481 45.5176 112.89 46.1186Z" fill="white"/>
<path d="M67.3922 95.6632C65.9773 96.2671 64.8363 97.3787 64.1911 98.7819C63.5532 97.3771 62.4144 96.2642 61 95.6632C62.4206 95.0716 63.5623 93.9558 64.1911 92.5446C64.8298 93.9524 65.9729 95.066 67.3922 95.6632Z" fill="white"/>
</svg>
