<svg width="204" height="203" viewBox="0 0 204 203" fill="none" xmlns="http://www.w3.org/2000/svg">
<path d="M101.879 202.378C158.146 202.378 203.758 157.074 203.758 101.189C203.758 45.3038 158.146 0 101.879 0C45.6129 0 0 45.3038 0 101.189C0 157.074 45.6129 202.378 101.879 202.378Z" fill="#0BCBFF"/>
<path d="M159.727 143.875C156.932 145.597 153.362 145.408 150.745 143.439C145.896 139.788 140.272 133.831 134.513 127.462C131.631 124.005 128.008 121.993 123.067 122.557H80.6321C75.6937 121.991 72.0683 124.003 69.1909 127.462C69.035 127.636 68.8798 127.805 68.7239 127.975C63.127 134.15 57.6723 139.885 52.9594 143.439C50.3349 145.407 46.7715 145.596 43.972 143.875C37.0489 139.635 35.0087 131.667 35.7879 121.869C35.7929 121.777 35.8022 121.685 35.8121 121.588C35.9728 119.591 36.2604 117.521 36.6445 115.389C36.6437 115.377 36.6454 115.366 36.6494 115.355C36.679 115.192 36.713 115.021 36.7421 114.857C38.5677 105.021 42.4383 93.9748 46.6788 83.2384C47.9348 80.0611 49.2204 76.9132 50.4956 73.828C50.866 72.9385 51.2309 72.0437 51.5964 71.1684L55.2727 69.0745L55.3315 68.8816L56.1249 65.9898C56.2937 65.3702 56.5963 64.7945 57.0116 64.3027C57.4269 63.8109 57.945 63.4147 58.5299 63.1417C63.7976 60.6658 69.2359 58.8362 74.8739 57.774C75.0199 57.7451 75.1609 57.7157 75.3074 57.6917C76.393 57.4987 77.5122 57.7071 78.4537 58.2776L82.5971 60.7846C83.9137 61.5881 85.4289 62.0132 86.9742 62.0125H116.735C118.28 62.0118 119.795 61.5869 121.112 60.7846L125.251 58.2776C126.193 57.7068 127.314 57.4986 128.4 57.6923C134.184 58.7463 139.769 60.6031 145.173 63.1422C145.757 63.4166 146.275 63.8132 146.691 64.3047C147.107 64.7963 147.411 65.3713 147.583 65.9904L148.43 69.0751L152.107 71.1689C152.496 72.1025 152.891 73.0503 153.28 74.0029C158.918 87.6245 164.755 102.561 167.053 115.368C169.338 128.097 168.125 138.726 159.727 143.875Z" fill="#5E6C7A"/>
<path d="M48.1405 145.197C46.6412 145.196 45.1722 144.778 43.8994 143.991C37.4795 140.057 34.7798 132.819 35.6512 121.858C35.6556 121.772 35.6649 121.681 35.6742 121.585C35.8301 119.651 36.1028 117.618 36.5094 115.363C36.5094 115.366 36.5061 115.35 36.5165 115.318C36.5308 115.239 36.5461 115.158 36.5609 115.078C36.5758 114.998 36.5928 114.915 36.607 114.832C38.6373 103.888 43.2553 91.5294 46.5508 83.1856C47.645 80.4192 48.8554 77.4282 50.3688 73.7735C50.5396 73.3633 50.7094 72.9529 50.878 72.5423C51.0755 72.0627 51.2725 71.5853 51.469 71.1139L51.4871 71.0708L55.1558 68.9808L55.1986 68.8396L55.9915 65.9512C56.1646 65.3121 56.4761 64.7182 56.9043 64.2111C57.3325 63.704 57.8671 63.2959 58.4705 63.0153C63.8666 60.4794 69.3768 58.6695 74.8469 57.6373L74.9128 57.6242C75.0368 57.5996 75.158 57.5751 75.2831 57.555C76.4002 57.3559 77.5519 57.5704 78.5206 58.1577L82.6639 60.6674C83.9589 61.4582 85.4495 61.8765 86.9697 61.8757H116.731C118.251 61.875 119.741 61.4571 121.037 60.668L125.174 58.1577C126.145 57.5687 127.3 57.3542 128.42 57.555C134.039 58.579 139.693 60.4162 145.227 63.0158C145.83 63.2982 146.364 63.7066 146.792 64.2132C147.221 64.7198 147.534 65.3125 147.71 65.9506L148.543 68.9819L152.21 71.0708L152.228 71.1139C152.617 72.0475 153.012 72.9952 153.401 73.9479C159.227 88.0224 164.929 102.778 167.183 115.339C169.81 129.959 167.395 139.33 159.797 143.989C156.987 145.72 153.315 145.542 150.659 143.547C145.74 139.841 139.942 133.671 134.408 127.552C131.255 123.769 127.549 122.182 123.081 122.693H80.632C76.1419 122.179 72.4414 123.768 69.2967 127.548C69.1458 127.716 68.9982 127.875 68.85 128.038L68.8248 128.065C63.4962 133.943 57.8955 139.886 53.0421 143.547C51.6332 144.613 49.9118 145.192 48.1405 145.197ZM36.7821 115.413C36.3771 117.659 36.1055 119.683 35.9513 121.599C35.9409 121.704 35.9321 121.79 35.9272 121.875C35.0646 132.727 37.7204 139.884 44.0481 143.759C46.806 145.455 50.2733 145.285 52.8824 143.331C57.7177 139.685 63.308 133.752 68.6278 127.885L68.6541 127.857C68.8006 127.697 68.9477 127.537 69.0931 127.373C72.2992 123.52 76.0826 121.902 80.6529 122.425H123.072C127.626 121.903 131.409 123.522 134.623 127.378C140.144 133.482 145.932 139.64 150.832 143.333C153.398 145.261 156.946 145.433 159.659 143.761C167.149 139.168 169.524 129.888 166.919 115.39C164.669 102.856 158.974 88.1161 153.153 74.0547C152.769 73.1162 152.382 72.1832 151.998 71.2643L148.314 69.1655L147.452 66.0264C147.286 65.4261 146.992 64.8686 146.588 64.3921C146.185 63.9155 145.683 63.5312 145.116 63.2654C139.604 60.6761 133.972 58.8461 128.377 57.8264C127.324 57.6378 126.237 57.8397 125.324 58.3937L121.185 60.9034C119.847 61.7189 118.307 62.1508 116.737 62.1514H86.9713C85.4006 62.1522 83.8606 61.7201 82.5223 60.9034L78.3795 58.3937C77.4671 57.8408 76.3824 57.639 75.3303 57.8264C75.2063 57.8471 75.0878 57.8705 74.9671 57.895L74.8996 57.9081C69.4509 58.9365 63.9632 60.7388 58.5874 63.2654C58.02 63.5293 57.5174 63.913 57.1147 64.3898C56.712 64.8666 56.4189 65.4249 56.2559 66.0258L55.3873 69.1666L51.7049 71.2643C51.514 71.7216 51.3208 72.1843 51.1315 72.6492C50.9625 73.059 50.7928 73.4696 50.6223 73.8808C49.1122 77.5323 47.8996 80.5233 46.8065 83.2886C43.5142 91.6221 38.905 103.964 36.8748 114.884C36.8605 114.965 36.8446 115.047 36.8287 115.132C36.8128 115.217 36.7969 115.298 36.7821 115.381V115.413Z" fill="#0F227A"/>
<path d="M167.05 115.296C164.752 102.492 158.914 87.5559 153.277 73.931C152.887 72.9783 152.493 72.0306 152.103 71.097L148.427 69.0031L147.58 65.9179C147.408 65.2988 147.104 64.7239 146.688 64.2323C146.272 63.7408 145.754 63.3442 145.17 63.0698C139.765 60.5312 134.181 58.6744 128.397 57.6198C127.311 57.426 126.19 57.634 125.248 58.2046L121.109 60.7116C121.041 60.753 120.971 60.789 120.902 60.8282C120.754 60.7402 120.587 60.6887 120.415 60.6783C120.243 60.6678 120.07 60.6986 119.913 60.7681C119.755 60.8375 119.617 60.9436 119.509 61.0774C119.401 61.2112 119.328 61.3687 119.294 61.5367C118.466 61.8033 117.602 61.9399 116.732 61.9416H86.9709C86.5804 61.9415 86.1904 61.9142 85.8038 61.8599C85.829 61.6102 85.7656 61.3597 85.6245 61.1517C85.4834 60.9436 85.2735 60.791 85.0312 60.7204C84.7888 60.6497 84.5292 60.6654 84.2973 60.7647C84.0653 60.864 83.8756 61.0407 83.7609 61.2642L83.745 61.2952C83.3464 61.1311 82.9611 60.9365 82.5927 60.7132L78.4494 58.2062C77.508 57.6364 76.3893 57.4284 75.3042 57.6214C75.1582 57.6454 75.0172 57.6759 74.8712 57.7037C69.2332 58.7676 63.7949 60.5922 58.5272 63.0708C57.9424 63.3439 57.4243 63.7401 57.009 64.2319C56.5937 64.7237 56.2911 65.2994 56.1222 65.919L55.3288 68.8107L55.2701 69.0042L51.5937 71.0981C51.2282 71.9733 50.8633 72.8677 50.493 73.7577C49.2178 76.8429 47.9321 79.9908 46.6761 83.1676C42.4356 93.904 38.565 104.952 36.7394 114.788C36.7104 114.951 36.6763 115.121 36.6467 115.286C36.6426 115.297 36.6409 115.308 36.6418 115.32C36.2577 117.452 35.9701 119.521 35.8094 121.519C35.8 121.615 35.7902 121.707 35.7852 121.799C35.6431 123.519 35.5993 125.246 35.6541 126.972C35.6793 126.2 35.7216 125.417 35.7852 124.62C35.7902 124.528 35.8 124.436 35.8094 124.34C35.9701 122.342 36.2577 120.273 36.6418 118.14C36.641 118.129 36.6427 118.117 36.6467 118.107C36.6763 117.943 36.7104 117.773 36.7394 117.609C38.565 107.773 42.4356 96.7238 46.6761 85.989C47.9321 82.8117 49.2178 79.6638 50.493 76.5786C50.8633 75.6891 51.2282 74.7942 51.5937 73.919L55.2701 71.8251L55.3288 71.6322L56.1222 68.7404C56.291 68.1208 56.5936 67.5451 57.0089 67.0533C57.4242 66.5615 57.9423 66.1653 58.5272 65.8923C63.7949 63.4164 69.2332 61.5868 74.8712 60.5246C75.0172 60.4957 75.1582 60.4663 75.3042 60.4423C76.3894 60.2495 77.5081 60.4577 78.4494 61.0277L82.5911 63.5346L80.2108 68.1562C80.0798 68.4105 80.0559 68.7061 80.1443 68.9779C80.2328 69.2497 80.4263 69.4755 80.6824 69.6056C80.9384 69.7357 81.236 69.7594 81.5097 69.6716C81.7834 69.5837 82.0107 69.3915 82.1417 69.1372L84.5741 64.4132C85.3512 64.6449 86.158 64.7631 86.9693 64.7641H116.731C117.956 64.7624 119.166 64.4933 120.275 63.9761L122.933 69.1372C123.064 69.3915 123.291 69.5837 123.565 69.6716C123.839 69.7594 124.136 69.7357 124.392 69.6056C124.648 69.4755 124.842 69.2497 124.93 68.9779C125.019 68.7061 124.995 68.4105 124.864 68.1562L122.157 62.8992L125.246 61.026C126.189 60.4552 127.309 60.247 128.396 60.4407C134.18 61.4947 139.764 63.3515 145.169 65.8906C145.753 66.165 146.271 66.5616 146.687 67.0531C147.103 67.5447 147.407 68.1197 147.579 68.7388L148.426 71.8235L152.102 73.9173C152.492 74.8509 152.886 75.7987 153.276 76.7513C158.913 90.3729 164.751 105.309 167.049 118.116C167.602 121.197 167.948 124.152 168.04 126.938C168.165 123.358 167.794 119.44 167.05 115.296Z" fill="white"/>
<path d="M115.091 62.0133C115.149 62.2743 115.183 62.4291 115.183 62.4291L120.509 71.1719L122.21 70.3643C125.346 64.1944 131.339 65.0309 131.339 65.0309L128.936 58.1596L128.771 57.7727C128.625 57.7438 128.484 57.7144 128.338 57.6904C127.253 57.4982 126.134 57.707 125.193 58.2773L121.05 60.7843C119.734 61.5878 118.219 62.0128 116.673 62.0122L115.091 62.0133Z" fill="#0F227A"/>
<path d="M88.5534 62.0141C88.4953 62.2752 88.4613 62.4299 88.4613 62.4299L83.1349 71.1728L81.4339 70.3651C78.2985 64.1952 72.3055 65.0317 72.3055 65.0317L74.7055 58.1604L74.8701 57.7735C75.0161 57.7446 75.1571 57.7152 75.3036 57.6912C76.3906 57.4976 77.5113 57.7058 78.4537 58.2776L82.5971 60.7846C83.9137 61.5881 85.4289 62.0132 86.9742 62.0125L88.5534 62.0141Z" fill="#0F227A"/>
<path d="M167.05 115.365C164.752 102.557 158.914 87.6244 153.277 73.9995C152.887 73.0469 152.493 72.0991 152.103 71.1655L148.427 69.0717L133.641 65.3472C131.788 64.8806 129.844 64.9156 128.009 65.4484C126.174 65.9812 124.517 66.9924 123.209 68.3768L117.193 74.7456C116.423 75.5606 115.494 76.2103 114.461 76.6544C113.429 77.0985 112.316 77.3277 111.191 77.3278H92.5097C91.3846 77.3277 90.2715 77.0985 89.2391 76.6544C88.2067 76.2103 87.277 75.5606 86.5073 74.7456L80.4917 68.3762C79.1837 66.9916 77.5261 65.9803 75.6913 65.4475C73.8565 64.9147 71.9114 64.8799 70.0585 65.3466L55.2706 69.0738L51.5942 71.1672C51.2288 72.0424 50.8639 72.9373 50.4935 73.8267C49.2183 76.912 47.9327 80.0599 46.6767 83.2372C42.4362 93.9736 38.5656 105.021 36.74 114.857C36.7109 115.02 36.6769 115.19 36.6473 115.355C36.6432 115.366 36.6415 115.377 36.6423 115.389C36.2582 117.521 35.9707 119.591 35.8099 121.588C35.8006 121.684 35.7907 121.777 35.7858 121.869C35.0066 131.666 37.0478 139.636 43.9699 143.875C45.3372 144.712 46.9275 145.118 48.5316 145.04C50.1357 144.962 51.6785 144.404 52.9573 143.439C57.6702 139.885 63.1227 134.15 68.7218 127.975C68.8776 127.805 69.0329 127.636 69.1888 127.462C72.0662 124.004 75.6932 121.993 80.63 122.557H123.065C128.003 121.991 131.629 124.003 134.51 127.462C140.272 133.831 145.894 139.788 150.742 143.439C153.362 145.407 156.93 145.596 159.725 143.875C168.125 138.725 169.338 128.097 167.05 115.365Z" fill="white"/>
<path d="M159.727 143.872C156.933 145.597 153.365 145.405 150.746 143.439C145.894 139.788 140.272 133.828 134.515 127.459C131.631 124.004 128.006 121.994 123.069 122.561H80.631C75.6926 121.994 72.0711 124.004 69.1903 127.459C69.0378 127.633 68.8792 127.807 68.7212 127.976C63.1243 134.149 57.6701 139.884 52.9594 143.439C50.3349 145.405 46.7726 145.597 43.9731 143.872C37.0511 139.631 35.0098 131.664 35.7901 121.864C35.7922 121.773 35.7998 121.682 35.8126 121.592C35.8351 121.294 35.8636 120.997 35.8977 120.693C36.6554 126.698 39.1043 131.523 43.9731 134.5C46.7715 136.224 50.3354 136.033 52.9599 134.067C57.6706 130.512 63.1221 124.777 68.7212 118.603C68.8792 118.43 69.0378 118.261 69.1903 118.087C72.0689 114.633 75.6942 112.622 80.631 113.182H123.069C124.579 113.007 125.97 113.08 127.254 113.356C127.26 113.361 127.26 113.356 127.26 113.356C130.127 110.789 131.388 106.688 130.2 102.874C130.145 102.7 130.087 102.526 130.025 102.358C129.459 100.841 131.23 99.5324 132.502 100.538C132.581 100.6 132.655 100.661 132.728 100.723C134.221 101.964 135.358 103.649 135.946 105.666C136.824 108.73 136.145 111.964 134.325 114.416C133.511 115.512 133.619 117.018 134.498 118.064C134.504 118.071 134.509 118.078 134.515 118.085C140.272 124.455 145.894 130.415 150.746 134.066C153.365 136.032 156.933 136.223 159.727 134.498C164.596 131.515 167.051 126.691 167.802 120.68C168.843 131.015 166.926 139.457 159.727 143.872Z" fill="#0F227A"/>
<path d="M155.562 146.676C153.466 146.672 151.428 145.986 149.762 144.722C144.748 140.949 138.889 134.716 133.301 128.542C133.286 128.526 133.271 128.51 133.258 128.493C130.418 125.084 127.239 123.708 123.25 124.162C123.189 124.169 123.127 124.172 123.065 124.172H80.6326C80.5709 124.172 80.5091 124.169 80.4477 124.162C76.4597 123.709 73.2799 125.084 70.4408 128.493C70.4266 128.51 70.4118 128.526 70.3975 128.542C64.8121 134.715 58.9524 140.948 53.9361 144.722C50.7486 147.12 46.501 147.328 43.1149 145.249C34.6844 140.075 32.1373 129.717 35.327 113.585C37.9504 100.317 44.0603 85.0478 50.0934 70.5449C50.2307 70.2144 50.4747 69.9386 50.787 69.7607L53.8795 67.9982L54.5523 65.5588C54.784 64.7143 55.1971 63.9297 55.7631 63.259C56.3292 62.5882 57.0348 62.0471 57.8314 61.6729C63.4831 59.0199 69.2633 57.1451 75.0061 56.0998C76.4857 55.8298 78.0136 56.112 79.2965 56.8922L83.4388 59.4069C84.5007 60.0515 85.7213 60.3925 86.9659 60.3922H116.728C117.972 60.3925 119.193 60.0515 120.255 59.4069L124.397 56.8928C125.68 56.1123 127.208 55.8299 128.687 56.0998C134.432 57.1451 140.21 59.0205 145.862 61.6729C146.659 62.0471 147.364 62.5882 147.931 63.2589C148.497 63.9297 148.91 64.7143 149.142 65.5588L149.814 67.9982L152.907 69.7607C153.219 69.9386 153.463 70.2144 153.6 70.5449C159.633 85.0478 165.743 100.317 168.367 113.585C171.556 129.717 169.009 140.072 160.579 145.249C159.072 146.179 157.335 146.673 155.562 146.676ZM135.744 126.407C141.215 132.453 146.938 138.542 151.727 142.147C153.835 143.733 156.64 143.872 158.874 142.501C175.6 132.236 160.813 96.3363 150.808 72.29L147.615 70.4703C147.242 70.2579 146.969 69.9075 146.856 69.4958L146.006 66.4133C145.898 66.0185 145.705 65.6516 145.441 65.3378C145.177 65.0241 144.847 64.7709 144.474 64.5958C139.078 62.0632 133.569 60.2739 128.102 59.2793C127.409 59.1532 126.694 59.2855 126.093 59.651L121.952 62.1651C120.379 63.1197 118.571 63.6247 116.728 63.6246H86.9692C85.1259 63.6248 83.3183 63.1198 81.7454 62.1651L77.6037 59.651C77.0034 59.2858 76.2885 59.1534 75.596 59.2793C70.1286 60.2739 64.6217 62.0626 59.2224 64.5958C58.8501 64.771 58.5205 65.0241 58.2562 65.3379C57.9918 65.6516 57.799 66.0185 57.6909 66.4133L56.8415 69.4958C56.7277 69.9074 56.4547 70.2576 56.0821 70.4703L52.8891 72.29C42.8872 96.3385 28.1004 132.238 44.8263 142.503C47.0601 143.874 49.8657 143.735 51.9728 142.149C56.7641 138.544 62.485 132.455 67.9557 126.409C71.4861 122.184 75.6673 120.397 80.7226 120.943H122.977C128.034 120.396 132.213 122.184 135.744 126.409V126.407Z" fill="#0F227A"/>
<path d="M111.191 78.7641H92.5096C91.1872 78.7619 89.8792 78.4916 88.6657 77.9696C87.4522 77.4476 86.3589 76.6849 85.4526 75.7284L79.4371 69.3591C78.306 68.1617 76.8727 67.2871 75.2861 66.8263C73.6994 66.3655 72.0175 66.3352 70.4151 66.7387L55.6273 70.4632C55.2556 70.5572 54.8616 70.5006 54.5319 70.306C54.2022 70.1114 53.9638 69.7947 53.8692 69.4256C53.7746 69.0564 53.8315 68.665 54.0275 68.3376C54.2234 68.0101 54.5423 67.7734 54.9139 67.6794L69.7012 63.9549C71.8044 63.4255 74.0119 63.4653 76.0943 64.0702C78.1767 64.675 80.058 65.8229 81.5425 67.3944L87.5624 73.7637C88.1981 74.4339 88.9649 74.9681 89.8158 75.3336C90.6666 75.6991 91.5837 75.8882 92.5107 75.8892H111.192C112.119 75.8881 113.036 75.6991 113.887 75.3336C114.738 74.9681 115.504 74.4339 116.14 73.7637L122.156 67.3944C123.64 65.8229 125.521 64.675 127.604 64.0702C129.686 63.4653 131.894 63.4255 133.997 63.9549L148.784 67.6794C149.152 67.7767 149.466 68.014 149.658 68.3398C149.851 68.6656 149.907 69.0537 149.813 69.4199C149.72 69.7861 149.485 70.101 149.159 70.2963C148.833 70.4916 148.443 70.5516 148.074 70.4632L133.286 66.7387C131.684 66.3352 130.002 66.3655 128.415 66.8263C126.829 67.2871 125.395 68.1617 124.264 69.3591L118.248 75.7284C117.341 76.6849 116.248 77.4476 115.035 77.9696C113.821 78.4916 112.513 78.7619 111.191 78.7641Z" fill="#0F227A"/>
<path d="M80.4906 69.4539C80.305 69.4537 80.1225 69.4062 79.9607 69.3159C79.7988 69.2256 79.663 69.0956 79.5662 68.9382C79.4694 68.7809 79.4149 68.6015 79.4079 68.4173C79.4008 68.2331 79.4415 68.0501 79.526 67.8859L83.0751 60.9956C83.139 60.868 83.2277 60.7544 83.3361 60.6611C83.4445 60.5679 83.5705 60.4969 83.7067 60.4524C83.8429 60.4078 83.9867 60.3906 84.1297 60.4016C84.2727 60.4126 84.412 60.4517 84.5397 60.5165C84.6674 60.5814 84.7808 60.6708 84.8735 60.7796C84.9661 60.8883 85.0361 61.0142 85.0794 61.15C85.1228 61.2858 85.1385 61.4287 85.1258 61.5706C85.1131 61.7125 85.0722 61.8505 85.0055 61.9765L81.4569 68.8675C81.3659 69.0441 81.2274 69.1924 81.0569 69.2958C80.8864 69.3993 80.6905 69.454 80.4906 69.4539Z" fill="#0F227A"/>
<path d="M123.215 69.4536C123.015 69.4538 122.819 69.399 122.648 69.2954C122.478 69.1918 122.34 69.0434 122.249 68.8667L118.7 61.9757C118.633 61.8497 118.592 61.7117 118.579 61.5698C118.567 61.4279 118.582 61.2849 118.626 61.1492C118.669 61.0134 118.739 60.8875 118.832 60.7787C118.924 60.67 119.038 60.5806 119.166 60.5157C119.293 60.4508 119.433 60.4118 119.576 60.4007C119.719 60.3897 119.862 60.407 119.999 60.4516C120.135 60.4961 120.261 60.567 120.369 60.6603C120.478 60.7535 120.566 60.8672 120.63 60.9947L124.179 67.8851C124.264 68.0493 124.305 68.2322 124.298 68.4166C124.291 68.6009 124.236 68.7803 124.139 68.9377C124.043 69.095 123.907 69.2251 123.745 69.3153C123.583 69.4056 123.4 69.4535 123.215 69.4536Z" fill="#0F227A"/>
<path d="M84.6514 115.357C90.4402 115.357 95.133 110.696 95.133 104.946C95.133 99.1965 90.4402 94.5356 84.6514 94.5356C78.8626 94.5356 74.1699 99.1965 74.1699 104.946C74.1699 110.696 78.8626 115.357 84.6514 115.357Z" fill="#D0D4D8"/>
<path d="M84.6543 115.492C78.799 115.492 74.0356 110.761 74.0356 104.946C74.0356 99.1305 78.799 94.3989 84.6543 94.3989C90.5096 94.3989 95.2725 99.1305 95.2725 104.946C95.2725 110.761 90.5063 115.492 84.6543 115.492ZM84.6543 94.6735C78.9477 94.6735 74.3099 99.2826 74.3099 104.948C74.3099 110.613 78.9477 115.22 84.6543 115.22C90.3609 115.22 94.9981 110.611 94.9981 104.946C94.9981 99.2804 90.3554 94.6714 84.6543 94.6714V94.6735Z" fill="#0F227A"/>
<path d="M93.1298 98.828C91.8776 98.3224 90.5384 98.0633 89.1867 98.065C83.3967 98.065 78.7063 102.728 78.7063 108.474C78.7016 110.673 79.403 112.816 80.7085 114.591C78.7756 113.813 77.1208 112.479 75.956 110.76C74.7912 109.042 74.1695 107.017 74.1706 104.945C74.1706 99.1981 78.8658 94.5356 84.6514 94.5356C86.3058 94.534 87.9365 94.9224 89.4104 95.6685C90.8843 96.4147 92.159 97.4975 93.1298 98.828Z" fill="#102770"/>
<path d="M81.2012 114.973L80.6426 114.749C78.6749 113.962 76.99 112.607 75.8054 110.86C74.6209 109.112 73.9912 107.052 73.9977 104.945C73.9977 99.1134 78.7764 94.3643 84.6504 94.3643C86.3312 94.3673 87.9877 94.7639 89.4852 95.522C90.9827 96.2802 92.2791 97.3784 93.2691 98.7275L93.623 99.2115L93.0655 98.9858C91.8343 98.4869 90.5169 98.2315 89.1872 98.2337C83.502 98.2337 78.8769 102.827 78.8769 108.474C78.8701 110.637 79.5604 112.745 80.8467 114.49L81.2012 114.973ZM84.6504 94.7049C78.9657 94.7049 74.3406 99.2987 74.3406 104.945C74.3347 106.883 74.8851 108.782 75.9273 110.42C76.9695 112.058 78.4604 113.367 80.225 114.194C79.1146 112.49 78.5269 110.502 78.5334 108.471C78.5334 102.64 83.3127 97.8909 89.1866 97.8909C90.3565 97.8891 91.5186 98.08 92.6254 98.4561C91.6568 97.2855 90.4395 96.3422 89.0608 95.6937C87.682 95.0452 86.176 94.7075 84.6504 94.7049Z" fill="#0F227A"/>
<path d="M84.6542 116.379C78.3072 116.379 73.1433 111.25 73.1433 104.946C73.1433 98.6418 78.3072 93.5128 84.6542 93.5128C91.0012 93.5128 96.1646 98.6418 96.1646 104.946C96.1646 111.25 90.9984 116.379 84.6542 116.379ZM84.6542 95.5598C79.4414 95.5598 75.202 99.7715 75.202 104.948C75.202 110.124 79.4414 114.334 84.6542 114.334C89.867 114.334 94.1058 110.122 94.1058 104.946C94.1058 99.7694 89.8631 95.5555 84.6542 95.5555V95.5598Z" fill="#0F227A"/>
<path d="M124.947 110.192C127.864 107.295 127.864 102.597 124.947 99.6999C122.03 96.8026 117.3 96.8026 114.383 99.6999C111.466 102.597 111.466 107.295 114.383 110.192C117.3 113.089 122.03 113.089 124.947 110.192Z" fill="#5E6C7A"/>
<path d="M119.665 112.535C115.452 112.535 112.024 109.13 112.024 104.946C112.024 100.761 115.452 97.3568 119.665 97.3568C123.878 97.3568 127.306 100.761 127.306 104.946C127.306 109.13 123.879 112.535 119.665 112.535ZM119.665 97.6974C115.641 97.6974 112.367 100.949 112.367 104.946C112.367 108.943 115.641 112.194 119.665 112.194C123.689 112.194 126.963 108.943 126.963 104.946C126.963 100.949 123.689 97.6974 119.665 97.6974Z" fill="#0F227A"/>
<path d="M124.947 110.192C127.864 107.295 127.864 102.597 124.947 99.6999C122.03 96.8026 117.3 96.8026 114.383 99.6999C111.466 102.597 111.466 107.295 114.383 110.192C117.3 113.089 122.03 113.089 124.947 110.192Z" fill="#D0D4D8"/>
<path d="M119.665 112.501C115.471 112.501 112.059 109.112 112.059 104.946C112.059 100.78 115.471 97.3906 119.665 97.3906C123.859 97.3906 127.272 100.78 127.272 104.946C127.272 109.112 123.859 112.501 119.665 112.501ZM119.665 97.6631C115.622 97.6631 112.333 100.93 112.333 104.946C112.333 108.961 115.622 112.229 119.665 112.229C123.708 112.229 126.997 108.961 126.997 104.946C126.997 100.93 123.708 97.6631 119.665 97.6631Z" fill="#0F227A"/>
<path d="M119.665 113.387C114.979 113.387 111.166 109.599 111.166 104.945C111.166 100.291 114.979 96.5037 119.665 96.5037C124.351 96.5037 128.164 100.29 128.164 104.945C128.164 109.6 124.351 113.387 119.665 113.387ZM119.665 98.5485C118.391 98.5485 117.146 98.9237 116.087 99.6265C115.028 100.329 114.202 101.328 113.715 102.497C113.227 103.666 113.1 104.952 113.348 106.193C113.597 107.434 114.21 108.574 115.111 109.468C116.012 110.363 117.159 110.972 118.408 111.219C119.658 111.466 120.953 111.339 122.129 110.855C123.306 110.371 124.312 109.551 125.02 108.499C125.727 107.447 126.105 106.21 126.105 104.945C126.103 103.249 125.424 101.623 124.217 100.424C123.009 99.2249 121.372 98.5504 119.665 98.5485Z" fill="#0F227A"/>
<path d="M119.665 108.476C121.628 108.476 123.219 106.895 123.219 104.946C123.219 102.996 121.628 101.416 119.665 101.416C117.702 101.416 116.111 102.996 116.111 104.946C116.111 106.895 117.702 108.476 119.665 108.476Z" fill="#0F227A"/>
<path d="M73.5056 89.274C76.4227 86.3767 76.4227 81.6793 73.5056 78.782C70.5885 75.8847 65.859 75.8846 62.942 78.782C60.0249 81.6793 60.0249 86.3767 62.942 89.274C65.859 92.1714 70.5885 92.1714 73.5056 89.274Z" fill="#5E6C7A"/>
<path d="M68.2235 91.6167C64.0099 91.6167 60.5827 88.2121 60.5827 84.0276C60.5827 79.8432 64.0099 76.438 68.2235 76.438C72.4371 76.438 75.8644 79.8426 75.8644 84.0276C75.8644 88.2127 72.4365 91.6167 68.2235 91.6167ZM68.2235 76.7792C64.1998 76.7792 60.9256 80.0306 60.9256 84.0276C60.9256 88.0246 64.1998 91.2761 68.2235 91.2761C72.2472 91.2761 75.5214 88.0241 75.5214 84.0276C75.5214 80.0312 72.2478 76.7792 68.2235 76.7792Z" fill="#0F227A"/>
<path d="M82.7792 89.1794C82.4094 93.9857 78.558 97.9222 73.7337 98.4247C72.2835 98.5787 70.8169 98.4198 69.4343 97.9589C68.0516 97.498 66.7855 96.746 65.7225 95.7542C65.0459 94.7144 65.7032 93.9601 66.7063 93.9988C67.381 94.1008 68.0643 94.1347 68.7459 94.1002C73.8873 93.8489 78.0938 89.6857 78.3665 84.5791C78.3758 84.4003 78.3807 84.2161 78.3807 84.0374C78.3857 82.4176 80.4988 81.7985 81.3438 83.1817C81.3987 83.2684 81.4459 83.3507 81.4947 83.433C82.4916 85.1778 82.939 87.1794 82.7792 89.1794Z" fill="#0F227A"/>
<path d="M73.5056 89.274C76.4227 86.3767 76.4227 81.6793 73.5056 78.782C70.5885 75.8847 65.859 75.8846 62.942 78.782C60.0249 81.6793 60.0249 86.3767 62.942 89.274C65.859 92.1714 70.5885 92.1714 73.5056 89.274Z" fill="#D0D4D8"/>
<path d="M68.2234 92.8966C63.2998 92.8966 59.2936 88.9181 59.2936 84.0273C59.2936 79.1365 63.2993 75.1575 68.2234 75.1575C73.1476 75.1575 77.1532 79.136 77.1532 84.0273C77.1532 88.9187 73.1476 92.8966 68.2234 92.8966ZM68.2234 78.0591C67.035 78.0591 65.8732 78.4091 64.885 79.0649C63.8968 79.7207 63.1267 80.6528 62.6719 81.7434C62.2171 82.8339 62.098 84.0339 62.3299 85.1917C62.5618 86.3494 63.1341 87.4128 63.9744 88.2475C64.8148 89.0822 65.8855 89.6506 67.0511 89.8809C68.2168 90.1112 69.425 89.993 70.5229 89.5413C71.6209 89.0895 72.5594 88.3246 73.2197 87.3431C73.88 86.3616 74.2324 85.2077 74.2324 84.0273C74.2301 82.4453 73.5962 80.9288 72.4697 79.8103C71.3433 78.6918 69.8162 78.0626 68.2234 78.0607V78.0591Z" fill="#0F227A"/>
<path d="M68.2235 87.5576C70.1863 87.5576 71.7775 85.9772 71.7775 84.0277C71.7775 82.0782 70.1863 80.4978 68.2235 80.4978C66.2607 80.4978 64.6695 82.0782 64.6695 84.0277C64.6695 85.9772 66.2607 87.5576 68.2235 87.5576Z" fill="#0F227A"/>
<path d="M135.93 80.8612C138.214 80.8612 140.064 79.0229 140.064 76.7552C140.064 74.4875 138.214 72.6492 135.93 72.6492C133.647 72.6492 131.796 74.4875 131.796 76.7552C131.796 79.0229 133.647 80.8612 135.93 80.8612Z" fill="#E5C62C"/>
<path d="M91.8972 103.108V106.783C91.8972 106.891 91.8757 106.998 91.834 107.098C91.7922 107.198 91.731 107.289 91.6539 107.366C91.5767 107.442 91.4851 107.503 91.3843 107.545C91.2836 107.586 91.1755 107.607 91.0665 107.607H87.5624V111.09C87.5624 111.309 87.4749 111.519 87.3191 111.674C87.1633 111.828 86.952 111.915 86.7316 111.915H83.0327C82.8124 111.915 82.6011 111.828 82.4453 111.674C82.2895 111.519 82.202 111.309 82.202 111.09V107.607H78.6957C78.5866 107.607 78.4786 107.586 78.3778 107.545C78.277 107.503 78.1855 107.442 78.1083 107.366C78.0312 107.289 77.97 107.198 77.9282 107.098C77.8864 106.998 77.865 106.891 77.865 106.783V103.106C77.865 102.887 77.9525 102.677 78.1083 102.522C78.2641 102.367 78.4754 102.28 78.6957 102.28H82.202V98.7973C82.202 98.689 82.2235 98.5817 82.2652 98.4817C82.307 98.3816 82.3682 98.2907 82.4453 98.2141C82.5225 98.1375 82.6141 98.0768 82.7149 98.0354C82.8157 97.994 82.9237 97.9727 83.0327 97.9728H86.7316C86.8407 97.9727 86.9487 97.994 87.0495 98.0354C87.1503 98.0768 87.2419 98.1375 87.319 98.2141C87.3962 98.2907 87.4574 98.3816 87.4991 98.4817C87.5409 98.5817 87.5624 98.689 87.5624 98.7973V102.28H91.0687C91.1778 102.281 91.2857 102.302 91.3864 102.344C91.4871 102.386 91.5785 102.447 91.6554 102.524C91.7324 102.6 91.7933 102.692 91.8348 102.792C91.8763 102.892 91.8975 102.999 91.8972 103.108Z" fill="#0F227A"/>
<path d="M144.426 89.2994C146.709 89.2994 148.56 87.461 148.56 85.1934C148.56 82.9257 146.709 81.0874 144.426 81.0874C142.143 81.0874 140.292 82.9257 140.292 85.1934C140.292 87.461 142.143 89.2994 144.426 89.2994Z" fill="#E52C5C"/>
<path d="M127.435 89.2994C129.718 89.2994 131.569 87.461 131.569 85.1934C131.569 82.9257 129.718 81.0874 127.435 81.0874C125.152 81.0874 123.301 82.9257 123.301 85.1934C123.301 87.461 125.152 89.2994 127.435 89.2994Z" fill="#5E7DEF"/>
<path d="M142.543 79.6415C142.544 80.6115 142.198 81.5503 141.568 82.2914C140.938 83.0326 140.064 83.5284 139.101 83.6909C138.138 83.8535 137.149 83.6723 136.308 83.1795C135.466 82.6867 134.828 81.9141 134.505 80.9986C135.135 81.3385 135.843 81.51 136.559 81.4963C137.276 81.4826 137.977 81.284 138.593 80.9202C139.209 80.5563 139.719 80.0397 140.073 79.4209C140.427 78.8022 140.614 78.1025 140.614 77.3907C140.613 76.9287 140.535 76.4701 140.382 76.0337C141.036 76.3859 141.582 76.9071 141.963 77.5421C142.343 78.1772 142.544 78.9025 142.543 79.6415Z" fill="#0F227A"/>
<path d="M142.543 96.5148C142.544 97.4849 142.198 98.4236 141.568 99.1648C140.938 99.9059 140.064 100.402 139.101 100.564C138.138 100.727 137.149 100.546 136.308 100.053C135.466 99.5601 134.828 98.7874 134.505 97.8719C135.135 98.2122 135.843 98.3839 136.559 98.3704C137.276 98.3568 137.977 98.1584 138.593 97.7945C139.209 97.4307 139.719 96.914 140.073 96.2951C140.428 95.6762 140.614 94.9765 140.614 94.2646C140.613 93.8025 140.535 93.3438 140.382 92.9075C141.036 93.2596 141.582 93.7807 141.963 94.4157C142.343 95.0506 142.544 95.7759 142.543 96.5148Z" fill="#0F227A"/>
<path d="M151.035 88.0797C151.034 89.0488 150.687 89.9862 150.057 90.7261C149.427 91.4661 148.554 91.961 147.592 92.1233C146.63 92.2856 145.641 92.105 144.801 91.6133C143.96 91.1215 143.321 90.3504 142.997 89.4362C143.627 89.7764 144.335 89.9482 145.052 89.9346C145.769 89.921 146.47 89.7227 147.086 89.3589C147.702 88.9951 148.213 88.4784 148.567 87.8596C148.922 87.2407 149.109 86.5409 149.109 85.8289C149.109 85.3669 149.031 84.9081 148.878 84.4718C149.531 84.8246 150.077 85.346 150.456 85.981C150.836 86.616 151.036 87.3411 151.035 88.0797Z" fill="#0F227A"/>
<path d="M134.045 88.0797C134.043 89.0488 133.697 89.9862 133.067 90.7261C132.437 91.4661 131.564 91.961 130.602 92.1233C129.64 92.2856 128.651 92.105 127.81 91.6133C126.969 91.1215 126.331 90.3504 126.007 89.4362C126.612 89.7654 127.292 89.9372 127.982 89.9354C128.643 89.9352 129.293 89.7779 129.88 89.4768C130.466 89.1756 130.972 88.7394 131.354 88.2045C131.736 87.6696 131.984 87.0516 132.076 86.4023C132.169 85.7529 132.103 85.0909 131.885 84.4718C132.539 84.8243 133.085 85.3456 133.465 85.9807C133.845 86.6157 134.045 87.3409 134.045 88.0797Z" fill="#0F227A"/>
<path d="M135.93 97.7375C138.214 97.7375 140.064 95.8992 140.064 93.6315C140.064 91.3638 138.214 89.5255 135.93 89.5255C133.647 89.5255 131.796 91.3638 131.796 93.6315C131.796 95.8992 133.647 97.7375 135.93 97.7375Z" fill="#55BC5C"/>
<path d="M138.922 73.9233C138.565 73.8217 138.196 73.7707 137.825 73.7718C137.016 73.7716 136.224 74.0072 135.549 74.4496C134.873 74.8919 134.343 75.5215 134.025 76.2602C133.706 76.999 133.613 77.8143 133.757 78.6052C133.9 79.396 134.275 80.1276 134.833 80.7091C134.219 80.5413 133.652 80.2348 133.177 79.8135C132.702 79.3921 132.331 78.8674 132.094 78.2803C131.857 77.6931 131.76 77.0595 131.81 76.4288C131.86 75.7981 132.056 75.1875 132.383 74.6447C132.711 74.1018 133.16 73.6415 133.695 73.2995C134.231 72.9576 134.84 72.7433 135.473 72.6735C136.106 72.6036 136.746 72.6801 137.345 72.8969C137.943 73.1137 138.483 73.465 138.922 73.9233Z" fill="white"/>
<path d="M147.415 82.3608C147.058 82.2587 146.689 82.2075 146.317 82.2087C145.508 82.2085 144.717 82.4441 144.041 82.8865C143.366 83.3288 142.836 83.9584 142.518 84.6971C142.199 85.4359 142.106 86.2512 142.249 87.0421C142.393 87.8329 142.767 88.5645 143.326 89.146C142.712 88.9784 142.145 88.672 141.669 88.2507C141.194 87.8295 140.823 87.3047 140.586 86.7175C140.348 86.1303 140.251 85.4965 140.301 84.8657C140.351 84.2349 140.548 83.6242 140.875 83.0813C141.202 82.5383 141.651 82.0779 142.187 81.7359C142.723 81.3939 143.331 81.1797 143.965 81.1099C144.598 81.0402 145.239 81.1168 145.837 81.3338C146.436 81.5508 146.976 81.9023 147.415 82.3608Z" fill="white"/>
<path d="M130.426 82.3608C130.07 82.2587 129.7 82.2075 129.329 82.2087C128.52 82.2085 127.728 82.4441 127.053 82.8865C126.377 83.3288 125.848 83.9584 125.529 84.6971C125.21 85.4359 125.117 86.2512 125.261 87.0421C125.405 87.8329 125.779 88.5645 126.337 89.146C125.723 88.9784 125.156 88.672 124.681 88.2507C124.205 87.8295 123.835 87.3047 123.597 86.7175C123.36 86.1303 123.262 85.4965 123.313 84.8657C123.363 84.2349 123.559 83.6242 123.886 83.0813C124.213 82.5383 124.663 82.0779 125.199 81.7359C125.735 81.3939 126.343 81.1797 126.976 81.1099C127.609 81.0402 128.25 81.1168 128.849 81.3338C129.447 81.5508 129.987 81.9023 130.426 82.3608Z" fill="white"/>
<path d="M138.922 90.8021C138.565 90.7005 138.196 90.6495 137.825 90.6506C137.016 90.6504 136.224 90.886 135.549 91.3284C134.873 91.7707 134.343 92.4003 134.025 93.139C133.706 93.8778 133.613 94.6931 133.757 95.484C133.9 96.2748 134.275 97.0064 134.833 97.5879C134.219 97.4201 133.652 97.1136 133.177 96.6923C132.702 96.2709 132.331 95.7462 132.094 95.159C131.857 94.5719 131.76 93.9383 131.81 93.3076C131.86 92.6769 132.056 92.0663 132.383 91.5235C132.711 90.9806 133.16 90.5203 133.695 90.1783C134.231 89.8364 134.84 89.6221 135.473 89.5523C136.106 89.4824 136.746 89.5589 137.345 89.7757C137.943 89.9925 138.483 90.3438 138.922 90.8021Z" fill="white"/>
<path d="M135.93 98.9465C134.872 98.9465 133.837 98.6348 132.957 98.0507C132.077 97.4667 131.391 96.6365 130.986 95.6653C130.581 94.694 130.475 93.6253 130.682 92.5942C130.888 91.5631 131.398 90.616 132.146 89.8727C132.895 89.1293 133.848 88.6231 134.886 88.418C135.924 88.2129 137.001 88.3181 137.978 88.7204C138.956 89.1228 139.792 89.804 140.38 90.6781C140.968 91.5522 141.282 92.5799 141.282 93.6312C141.28 95.0404 140.716 96.3915 139.713 97.3879C138.71 98.3844 137.349 98.9449 135.93 98.9465ZM135.93 90.734C135.353 90.734 134.789 90.904 134.309 91.2224C133.83 91.5408 133.456 91.9934 133.235 92.5229C133.014 93.0525 132.956 93.6351 133.069 94.1973C133.182 94.7594 133.46 95.2757 133.868 95.6809C134.276 96.0862 134.796 96.3621 135.362 96.4739C135.928 96.5856 136.514 96.5281 137.047 96.3087C137.58 96.0893 138.036 95.7178 138.357 95.2412C138.677 94.7646 138.848 94.2043 138.848 93.6312C138.847 92.863 138.539 92.1265 137.992 91.5833C137.445 91.0402 136.704 90.7347 135.93 90.734Z" fill="#0F227A"/>
<path d="M135.93 82.071C134.872 82.071 133.837 81.7593 132.957 81.1752C132.077 80.5912 131.391 79.761 130.986 78.7898C130.581 77.8185 130.475 76.7498 130.682 75.7187C130.888 74.6876 131.398 73.7405 132.146 72.9972C132.895 72.2538 133.848 71.7476 134.886 71.5425C135.924 71.3374 137.001 71.4426 137.978 71.8449C138.956 72.2473 139.792 72.9285 140.38 73.8026C140.968 74.6767 141.282 75.7044 141.282 76.7557C141.28 78.1649 140.716 79.516 139.713 80.5124C138.71 81.5089 137.349 82.0694 135.93 82.071ZM135.93 73.8585C135.354 73.8586 134.79 74.0286 134.31 74.347C133.83 74.6654 133.457 75.118 133.236 75.6474C133.015 76.1768 132.958 76.7593 133.07 77.3212C133.183 77.8832 133.461 78.3994 133.869 78.8045C134.277 79.2096 134.796 79.4855 135.362 79.5973C135.928 79.709 136.514 79.6516 137.047 79.4323C137.58 79.213 138.036 78.8417 138.356 78.3652C138.677 77.8888 138.848 77.3287 138.848 76.7557C138.847 75.9875 138.539 75.251 137.992 74.7078C137.445 74.1647 136.704 73.8592 135.93 73.8585Z" fill="#0F227A"/>
<path d="M144.426 90.5084C143.368 90.5085 142.333 90.1968 141.453 89.6128C140.573 89.0289 139.887 88.1987 139.481 87.2275C139.076 86.2563 138.97 85.1875 139.177 84.1564C139.383 83.1253 139.893 82.1781 140.641 81.4347C141.39 80.6913 142.343 80.185 143.381 79.9799C144.419 79.7747 145.495 79.8799 146.473 80.2822C147.451 80.6845 148.287 81.3658 148.875 82.2399C149.463 83.114 149.777 84.1417 149.777 85.193C149.776 86.6022 149.211 87.9531 148.208 88.9496C147.205 89.9461 145.845 90.5066 144.426 90.5084ZM144.426 82.2958C143.849 82.2958 143.285 82.4657 142.806 82.7841C142.326 83.1024 141.952 83.5549 141.731 84.0843C141.51 84.6137 141.453 85.1962 141.565 85.7582C141.678 86.3202 141.956 86.8365 142.363 87.2417C142.771 87.6468 143.291 87.9228 143.857 88.0346C144.423 88.1463 145.009 88.089 145.542 87.8697C146.075 87.6504 146.531 87.2791 146.851 86.8026C147.172 86.3262 147.343 85.766 147.343 85.193C147.342 84.4249 147.035 83.6885 146.488 83.1454C145.941 82.6022 145.199 82.2967 144.426 82.2958Z" fill="#0F227A"/>
<path d="M127.435 90.5084C126.377 90.5084 125.342 90.1966 124.462 89.6126C123.582 89.0285 122.896 88.1984 122.491 87.2271C122.086 86.2559 121.98 85.1871 122.187 84.1561C122.393 83.125 122.903 82.1779 123.651 81.4345C124.4 80.6911 125.353 80.1849 126.391 79.9798C127.429 79.7747 128.505 79.88 129.483 80.2823C130.461 80.6846 131.297 81.3659 131.885 82.24C132.473 83.1141 132.787 84.1418 132.787 85.193C132.785 86.6023 132.221 87.9533 131.218 88.9498C130.214 89.9463 128.854 90.5068 127.435 90.5084ZM127.435 82.2958C126.858 82.2958 126.294 82.4657 125.815 82.7841C125.335 83.1024 124.961 83.5549 124.74 84.0843C124.52 84.6137 124.462 85.1962 124.574 85.7582C124.687 86.3202 124.965 86.8365 125.373 87.2417C125.781 87.6468 126.3 87.9228 126.866 88.0346C127.432 88.1463 128.019 88.089 128.552 87.8697C129.085 87.6504 129.54 87.2791 129.861 86.8026C130.181 86.3262 130.352 85.766 130.352 85.193C130.351 84.4249 130.044 83.6885 129.497 83.1454C128.95 82.6022 128.209 82.2967 127.435 82.2958Z" fill="#0F227A"/>
<path d="M98.1058 88.5221C98.4521 87.065 97.5435 85.605 96.0764 85.2611C94.6094 84.9172 93.1394 85.8196 92.7932 87.2767C92.4469 88.7338 93.3555 90.1938 94.8225 90.5377C96.2896 90.8816 97.7596 89.9792 98.1058 88.5221Z" fill="#0F227A"/>
<path d="M110.178 89.8209C111.243 88.7623 111.243 87.0459 110.178 85.9873C109.112 84.9286 107.384 84.9286 106.318 85.9873C105.252 87.0459 105.252 88.7623 106.318 89.8209C107.384 90.8796 109.112 90.8796 110.178 89.8209Z" fill="#0F227A"/>
<path d="M99.9277 89.523C99.9289 90.1564 99.7066 90.7701 99.2994 91.2575C98.8923 91.7449 98.326 92.0752 97.6991 92.1908C97.0721 92.3065 96.4242 92.2002 95.868 91.8906C95.3117 91.5809 94.8824 91.0874 94.6545 90.4959C94.9132 90.5757 95.1826 90.6158 95.4535 90.6147C96.1772 90.6147 96.8712 90.3291 97.383 89.8208C97.8947 89.3126 98.1822 88.6232 98.1822 87.9044C98.1831 87.5715 98.1205 87.2414 97.9979 86.9316C98.5565 87.1014 99.0455 87.4448 99.3929 87.9113C99.7403 88.3778 99.9278 88.9428 99.9277 89.523Z" fill="#0F227A"/>
<path d="M112.723 89.5231C112.724 90.1564 112.502 90.7701 112.094 91.2575C111.687 91.745 111.121 92.0752 110.494 92.1909C109.867 92.3065 109.219 92.2003 108.663 91.8906C108.107 91.5809 107.677 91.0874 107.45 90.4959C107.708 90.5758 107.977 90.6158 108.248 90.6147C108.972 90.6147 109.666 90.3292 110.178 89.8209C110.689 89.3127 110.977 88.6233 110.977 87.9044C110.978 87.5715 110.915 87.2414 110.792 86.9316C111.351 87.1013 111.84 87.4447 112.188 87.9112C112.535 88.3778 112.723 88.9428 112.723 89.5231Z" fill="#0F227A"/>
</svg>
