<svg width="204" height="204" viewBox="0 0 204 204" fill="none" xmlns="http://www.w3.org/2000/svg">
<circle cx="101.879" cy="101.879" r="101.879" fill="#0BCBFF"/>
<path d="M127.451 112.616C127.166 101.961 127.101 91.3057 127.975 80.6719C128.198 77.9006 129.245 74.6244 125.929 73.8228C124.244 73.413 120.831 72.9998 119.551 74.5299C119.483 74.6048 119.445 74.7028 119.447 74.8041C119.449 74.9053 119.489 75.0021 119.56 75.0748C119.015 76.4707 119.138 77.9957 119.052 79.497C118.887 82.258 118.736 85.0605 118.608 87.8424C118.473 90.7803 118.363 93.7266 118.279 96.6812C113.827 96.2096 103.427 96.3534 98.9603 96.3269C94.42 96.3188 90.0059 96.1848 85.2603 96.1361C85.2541 93.405 85.2682 91.1294 85.2237 88.3995C85.172 85.4432 85.0978 82.4836 85.0009 79.5206C84.9481 77.8906 85.1953 76.0604 84.591 74.516C84.65 74.4234 84.6791 74.315 84.6744 74.2055C84.6697 74.096 84.6315 73.9905 84.5648 73.9031C83.4432 72.4821 80.3614 72.7869 78.8162 73.0083C76.0649 73.4082 75.8968 74.5687 75.9322 77.1854C76.0974 87.4132 76.4183 97.5262 75.9238 107.787C75.6566 113.162 75.1775 118.552 74.9916 123.95C74.8797 127.101 76.0354 129.303 79.5001 129.265C80.7514 129.248 82.5044 129.143 83.5543 128.363C85.0111 127.272 84.6546 124.985 84.7207 123.405C84.9596 118.015 85.1295 112.62 85.2305 107.218C85.247 106.319 85.2376 105.801 85.2487 104.903C89.6855 104.886 94.1458 104.536 98.5847 104.655C103.118 104.779 113.564 105.572 118.095 105.44C118.027 110.725 118.041 116.012 118.097 121.286C118.156 124.713 117.042 128.761 121.193 129.646C123.76 130.191 126.779 130.121 127.649 127.182C128.235 125.183 127.783 122.759 127.718 120.716C127.655 118.006 127.526 115.296 127.451 112.616Z" fill="#0A3B87"/>
<path d="M138.652 112.769C138.68 110.629 138.704 108.486 138.727 106.34C140.793 106.388 142.86 104.398 143.121 102.456C143.431 100.145 141.138 97.4864 138.792 98.5257C138.793 97.9135 138.805 97.294 138.805 96.6765C138.818 94.4884 138.812 92.2546 138.782 90.0412C138.765 88.9514 138.972 87.4835 138.642 86.432C137.922 84.1428 132.73 84.8335 130.917 85.3096C130.841 85.3289 130.771 85.3655 130.712 85.4166C130.653 85.4677 130.608 85.5319 130.578 85.6038C130.552 85.6396 130.537 85.6821 130.534 85.7263C129.94 91.0597 130.197 96.5338 130.153 101.897C130.109 107.259 130.009 112.676 130.044 118.079C130.044 118.258 130.114 118.43 130.239 118.558C130.365 118.686 130.536 118.761 130.716 118.765C132.559 118.896 134.41 118.856 136.246 118.643C136.844 118.604 137.808 118.703 138.291 118.203C139.217 117.221 138.638 114.022 138.652 112.769Z" fill="#0A3B87"/>
<path d="M73.2987 101.089C73.3987 95.7329 73.8005 90.2801 73.3688 84.9351C73.3774 84.8262 73.347 84.7177 73.2829 84.629C73.2189 84.5402 73.1252 84.4768 73.0186 84.45C71.208 83.9201 66.0605 83.0948 65.2338 85.3489C64.8648 86.3698 65.0419 87.8633 65.0004 88.9307C64.9072 91.1328 64.8507 93.3557 64.7976 95.5672C64.7831 96.1981 64.7739 96.8281 64.7594 97.4591C64.2534 97.2823 63.7117 97.2306 63.181 97.3083C62.6504 97.386 62.1467 97.5908 61.7136 97.905C61.1886 98.2935 60.7813 98.8178 60.5361 99.4207C60.2909 100.024 60.2173 100.682 60.3234 101.323C60.5516 103.229 62.5594 105.303 64.6017 105.279C64.5731 107.411 64.5422 109.541 64.5088 111.667C64.4926 112.877 63.8497 116.011 64.6772 117.047C65.0893 117.57 65.6865 117.526 66.2948 117.605C68.273 117.917 70.2792 118.018 72.2791 117.907C72.456 117.91 72.6273 117.845 72.7569 117.726C72.8866 117.606 72.9644 117.441 72.9741 117.266C73.145 111.875 73.1991 106.478 73.2987 101.089Z" fill="#0A3B87"/>
</svg>
