<svg width="17" height="14" viewBox="0 0 17 14" fill="none" xmlns="http://www.w3.org/2000/svg">
<path d="M16.0525 1.10354C15.3996 1.56409 14.6767 1.91634 13.9116 2.14672C13.5009 1.67457 12.9552 1.33992 12.3482 1.18803C11.7412 1.03615 11.1021 1.07435 10.5175 1.29748C9.93294 1.52061 9.43097 1.9179 9.07952 2.43562C8.72807 2.95333 8.5441 3.56649 8.55249 4.19217V4.87399C7.35429 4.90506 6.167 4.63932 5.09636 4.10043C4.02572 3.56154 3.10498 2.76624 2.41613 1.78535C2.41613 1.78535 -0.311146 7.92172 5.82522 10.649C4.42103 11.6022 2.74828 12.0801 1.05249 12.0126C7.18885 15.4217 14.6889 12.0126 14.6889 4.17172C14.6882 3.9818 14.67 3.79235 14.6343 3.60581C15.3302 2.91955 15.8212 2.05311 16.0525 1.10354Z" stroke="white" stroke-linecap="round" stroke-linejoin="round"/>
</svg>
